<svg xmlns="http://www.w3.org/2000/svg" width="18" height="18" viewBox="0 0 18 18"><path d="M5.5,9.511c.076.954.83,1.7,2.182,1.785V12h.6v-.709c1.4-.1,2.218-.846,2.218-1.932,0-.987-.626-1.5-1.745-1.76l-.473-.112V5.57a1.122,1.122,0,0,1,1.074.85h1.052A2.025,2.025,0,0,0,8.282,4.7V4h-.6v.719a1.962,1.962,0,0,0-2.01,1.853c0,.9.606,1.472,1.613,1.707l.4.1v2.034a1.209,1.209,0,0,1-1.114-.9ZM7.677,7.345c-.59-.137-.91-.416-.91-.836a.971.971,0,0,1,.915-.925v1.76H7.677Zm.692,1.193c.717.166,1.048.435,1.048.91,0,.542-.412.914-1.135.982V8.518Z" transform="translate(1 1)" fill="#f49d21"/><path d="M9,16.875A7.875,7.875,0,1,1,16.875,9,7.875,7.875,0,0,1,9,16.875ZM9,18A9,9,0,1,0,0,9,9,9,0,0,0,9,18Z" fill="#f49d21"/><path d="M9,15.417A6.417,6.417,0,1,1,15.417,9,6.417,6.417,0,0,1,9,15.417ZM9,16A7,7,0,1,0,2,9a7,7,0,0,0,7,7Z" transform="translate(0)" fill="#f49d21"/></svg>